<svg width="19" height="21" viewBox="0 0 19 21" fill="none" xmlns="http://www.w3.org/2000/svg">
<path d="M9.91677 3.62057C9.91677 3.62057 9.89768 3.58822 9.8595 3.52351C9.82127 3.46015 9.79971 3.41488 9.79481 3.3877C9.78991 3.36052 9.78709 3.33273 9.78633 3.30432C9.78558 3.27592 9.78646 3.24756 9.78898 3.21926C9.79237 3.18964 9.79774 3.1621 9.8051 3.13665C9.8125 3.10985 9.82188 3.08514 9.83325 3.06252C9.84385 3.03853 9.8564 3.0173 9.87093 2.99883C9.88459 2.98169 9.89942 2.96661 9.91541 2.95359C9.93137 2.94192 9.94805 2.93299 9.96548 2.92677C9.98208 2.92053 9.99938 2.91837 10.0174 2.92028C10.0346 2.92082 10.0517 2.9254 10.0686 2.93404C10.084 2.94128 10.0993 2.95189 10.1144 2.96588C10.1295 2.98121 10.1429 2.99852 10.1546 3.01781C10.1671 3.03847 10.1779 3.06043 10.187 3.08369C10.1961 3.1083 10.1995 3.28882 10.1972 3.62526C10.1949 3.96305 10.1872 4.38041 10.1742 4.87733C10.162 5.37428 10.1346 6.0032 10.092 6.76409C10.0486 7.5236 9.97129 8.53072 9.85997 9.78545C9.74706 11.0388 9.61293 12.1698 9.45759 13.1785C9.30148 14.1859 9.13855 15.0829 8.9688 15.8696C8.79828 16.6549 8.61036 17.3268 8.40506 17.8853C8.19972 18.4451 7.94702 18.9055 7.64696 19.2665C7.34694 19.626 7.03755 19.7995 6.71878 19.7869C6.40001 19.7742 6.09458 19.5836 5.80249 19.215C5.51122 18.8465 5.24122 18.3353 4.99249 17.6816C4.74289 17.0292 4.54678 16.4243 4.40415 15.8672C4.26235 15.31 4.1632 14.7927 4.1067 14.3152C4.0502 13.8377 4.07418 13.3844 4.17863 12.9552C4.28305 12.5273 4.42723 12.2318 4.61118 12.0686C4.79513 11.9054 5.01166 11.8419 5.26078 11.878C5.50908 11.9142 5.83698 12.0683 6.24448 12.3405C6.65193 12.614 7.04858 12.8656 7.43443 13.0952C7.82024 13.3262 8.22943 13.5308 8.66201 13.7092C9.0954 13.8876 9.61551 13.9822 10.2223 13.993C10.8308 14.0025 11.3926 13.9572 11.9077 13.857C12.4228 13.7582 12.8993 13.5811 13.3371 13.3258C13.7758 13.0706 14.1627 12.715 14.4977 12.2592C14.8328 11.8021 15.0808 11.3348 15.2417 10.8573C15.4027 10.3785 15.4681 9.91027 15.4381 9.45255C15.4088 8.9962 15.2108 8.49404 14.8439 7.94608C14.4761 7.39809 14.0518 6.94227 13.5709 6.5786C13.0899 6.21493 12.4204 6.00351 11.5624 5.94433C10.7044 5.8865 9.8605 6.0048 9.03084 6.29922C8.20033 6.59498 7.42101 7.02477 6.6929 7.5886C5.96484 8.15108 5.31606 8.78901 4.74656 9.50239C4.1771 10.2144 3.72495 11.0065 3.39008 11.8785C3.05436 12.7519 2.84466 13.5042 2.76098 14.1354C2.67726 14.768 2.7537 15.3427 2.9903 15.8596C3.22693 16.3751 3.52893 16.7812 3.89628 17.0778C4.26363 17.3744 4.71254 17.5553 5.243 17.6205C5.77259 17.687 6.51069 17.5397 7.45729 17.1786C8.40307 16.8176 9.30602 16.3957 10.1662 15.913C11.0271 15.4317 11.8053 14.9052 12.5008 14.3336C13.1956 13.7606 13.7714 13.2279 14.2281 12.7353C14.6849 12.2428 14.9997 11.7634 15.1726 11.2971C15.3463 10.8309 15.387 10.4456 15.2948 10.1414C15.2025 9.83712 14.8552 9.55736 14.2527 9.30207C13.651 9.04816 12.9333 8.92308 12.0996 8.92682C11.2658 8.93191 10.3655 9.05724 9.39873 9.30279C8.43108 9.54968 7.48123 9.87009 6.5492 10.264C5.61716 10.658 4.71764 11.1408 3.85062 11.7125C2.98279 12.2841 2.29751 12.777 1.79477 13.191C1.292 13.6065 0.968156 13.9538 0.82325 14.2331C0.679164 14.5124 0.689326 14.7918 0.853734 15.0713C1.0181 15.3521 1.31165 15.6079 1.73439 15.8387C2.15626 16.0708 2.74404 16.2317 3.49772 16.3214C4.25059 16.4111 5.27858 16.2816 6.5817 15.933C7.88399 15.5844 9.08548 15.1536 10.1861 14.6406C11.2884 14.1276 12.263 13.5795 13.1099 12.9964C13.956 12.412 14.6872 11.7617 15.3035 11.0458C15.9207 10.3285 16.3813 9.64818 16.6852 9.0049C16.99 8.36031 17.1653 7.66031 17.211 6.90493C17.2567 6.14954 17.2407 5.46589 17.1629 4.85396C17.0852 4.24204 16.9688 3.72351 16.8139 3.29838C16.659 2.8719 16.4673 2.51928 16.2389 2.24052C16.0097 1.96173 15.7972 1.7632 15.6015 1.64493C15.4049 1.52799 15.2269 1.47581 15.0673 1.4884C14.9077 1.50235 14.759 1.6261 14.6213 1.85966C14.4836 2.09322 14.3581 2.39541 14.2448 2.76623C14.1314 3.1384 14.0315 3.60491 13.9451 4.16577C13.8595 4.72801 13.7859 5.50955 13.7244 6.51041C13.662 7.51124 13.5983 8.4627 13.5332 9.36479C13.4674 10.2668 13.4142 11.118 13.3736 11.9181C13.3331 12.7182 13.2966 13.4813 13.2641 14.2074C13.2317 14.9321 13.2126 15.5194 13.2067 15.9693C13.2009 16.4191 13.1939 16.7095 13.1857 16.8403C13.1767 16.9711 13.1807 17.0401 13.1977 17.0474C13.2139 17.056 13.2291 17.0687 13.2433 17.0853C13.2568 17.102 13.2684 17.1219 13.2784 17.1452C13.2883 17.1685 13.2957 17.1937 13.3006 17.2209C13.3047 17.2481 13.3063 17.2758 13.3054 17.3042C13.3045 17.3325 13.3012 17.3608 13.2954 17.389C13.2888 17.4158 13.2798 17.4406 13.2685 17.4632C13.2571 17.4844 13.2443 17.503 13.2298 17.5187C13.2146 17.5345 13.1986 17.5461 13.182 17.5537C13.1645 17.5613 13.1472 17.5641 13.13 17.5622C13.1129 17.559 13.0963 17.5517 13.0802 17.5404C13.0641 17.5305 13.0498 17.5158 13.0373 17.4965C13.0248 17.4772 13.0144 17.4553 13.0061 17.4307C12.9978 17.4061 12.9921 17.3796 12.9889 17.3511C12.9865 17.3226 12.9866 17.2942 12.9891 17.2659C12.9916 17.2376 12.997 17.2108 13.0051 17.1854C13.0134 17.1586 13.0239 17.1353 13.0369 17.1154C13.049 17.0955 13.063 17.079 13.079 17.066C13.095 17.053 13.1117 17.0441 13.1291 17.0392C13.1464 17.0357 13.1636 17.0362 13.1807 17.0408C13.1978 17.0468 13.2139 17.0567 13.229 17.0707C13.2433 17.0847 13.2563 17.102 13.268 17.1226C13.2797 17.1432 13.2888 17.1672 13.2953 17.1944C13.3011 17.2203 13.3047 17.2474 13.3063 17.2758C13.3071 17.3042 13.3049 17.3326 13.3 17.3608C13.2958 17.389 13.2888 17.4152 13.2791 17.4392C13.2693 17.4632 13.2575 17.4845 13.2438 17.503C13.2301 17.5214 13.2149 17.5358 13.1982 17.5461C13.1815 17.5551 13.1645 17.5606 13.1472 17.5628C13.13 17.5636 13.1213 17.564 13.1213 17.564C13.1213 17.564 13.0385 17.4195 12.8727 17.1305C12.7069 16.8429 12.6151 16.459 12.5972 15.9786C12.5786 15.4983 12.5827 14.8923 12.6096 14.1607C12.6357 13.429 12.6696 12.6563 12.7114 11.8427C12.7531 11.0304 12.8064 10.176 12.8713 9.27928C12.9362 8.38259 13.0027 7.40622 13.0709 6.35016C13.1383 5.29543 13.2247 4.44536 13.3301 3.79996C13.4355 3.15725 13.5702 2.5979 13.7344 2.1219C13.8977 1.64723 14.1044 1.25432 14.3545 0.943174C14.6046 0.630679 14.8653 0.468522 15.1364 0.456702C15.4076 0.443532 15.671 0.520668 15.9267 0.688109C16.1816 0.855525 16.45 1.12608 16.7321 1.49976C17.0142 1.87479 17.2465 2.33072 17.4292 2.86753C17.6118 3.40434 17.7447 4.03623 17.8279 4.7632C17.911 5.49152 17.9119 6.3193 17.8305 7.24656C17.749 8.17382 17.53 9.01637 17.1732 9.77422C16.8165 10.5334 16.3068 11.3007 15.6443 12.0761C14.9818 12.8527 14.2124 13.5437 13.3361 14.1488C12.4598 14.754 11.4564 15.318 10.3259 15.8409C9.19543 16.3638 7.95024 16.8021 6.59035 17.1557C5.2305 17.5079 4.14088 17.6273 3.32148 17.5139C2.50289 17.4006 1.83597 17.173 1.32069 16.8312C0.805422 16.4895 0.45576 16.086 0.271708 15.6208C0.0868355 15.1555 0.106804 14.5676 0.331614 13.857C0.556425 13.1464 0.939291 12.5637 1.48021 12.1089C2.0211 11.6554 2.74089 11.1346 3.6396 10.5463C4.53827 9.95944 5.46567 9.46399 6.42182 9.05998C7.37874 8.65735 8.35998 8.32981 9.36555 8.07735C10.3703 7.82352 11.3242 7.70257 12.2272 7.7145C13.1302 7.72643 13.9348 7.93328 14.641 8.33505C15.3463 8.73815 15.7671 9.24387 15.9032 9.85221C16.0385 10.4592 15.9789 11.1337 15.7244 11.8758C15.4699 12.6166 15.0964 13.2536 14.6039 13.787C14.1106 14.3203 13.5002 14.8844 12.7728 15.4793C12.0454 16.0729 11.2379 16.6174 10.3503 17.1127C9.46432 17.6081 8.51019 18.0399 7.48788 18.4081C6.46635 18.7776 5.64589 18.9088 5.02649 18.8016C4.40713 18.6931 3.87091 18.4311 3.41783 18.0156C2.9648 17.5988 2.60272 17.0145 2.3316 16.2627C2.05971 15.5096 1.97772 14.705 2.08564 13.8488C2.19355 12.9926 2.44583 12.0721 2.84247 11.0871C3.23833 10.1007 3.74603 9.22456 4.36557 8.45868C4.98598 7.69148 5.68779 7.01061 6.47101 6.41606C7.25505 5.82154 8.09446 5.372 8.98925 5.06744C9.88408 4.76152 10.8051 4.65577 11.7522 4.75016C12.6986 4.84318 13.4476 5.10979 13.9992 5.54999C14.5508 5.99154 15.0393 6.58654 15.4647 7.33499C15.8902 8.08344 16.1123 8.81609 16.131 9.53293C16.1496 10.2511 16.0456 10.9277 15.8191 11.5625C15.5933 12.1974 15.2732 12.7807 14.8587 13.3125C14.4442 13.8442 13.9889 14.2503 13.4928 14.5308C12.9959 14.8099 12.4731 15.0011 11.9242 15.1042C11.3754 15.2074 10.7682 15.2479 10.1027 15.2258C9.43872 15.2051 8.87795 15.0991 8.42035 14.9078C7.96278 14.7152 7.53546 14.4998 7.13839 14.2617C6.74132 14.0237 6.36779 13.7803 6.01782 13.5315C5.66862 13.2841 5.39441 13.1316 5.19519 13.0741C4.99593 13.0178 4.873 13.066 4.82639 13.2187C4.78061 13.3713 4.78044 13.6267 4.82589 13.9849C4.87134 14.3431 4.95722 14.7728 5.08353 15.2741C5.20903 15.7754 5.37297 16.3068 5.57534 16.8686C5.77694 17.429 5.96556 17.8531 6.14119 18.1411C6.31686 18.4276 6.48748 18.5999 6.65306 18.6577C6.81781 18.7156 7.00004 18.6341 7.19973 18.4133C7.39943 18.1924 7.59316 17.8471 7.78093 17.3773C7.96783 16.9087 8.14835 16.3028 8.32249 15.5595C8.49667 14.8149 8.66492 13.9579 8.82724 12.9886C8.98955 12.0193 9.13425 10.9176 9.26132 9.68367C9.3884 8.44971 9.47915 7.4599 9.53358 6.71425C9.58804 5.96725 9.62895 5.33942 9.65629 4.83078C9.68363 4.32214 9.71499 3.96093 9.75037 3.74715C9.78489 3.5347 9.79971 3.41488 9.79481 3.3877C9.78991 3.36052 9.78709 3.33273 9.78633 3.30432C9.78558 3.27592 9.78646 3.24756 9.78898 3.21926C9.79237 3.18964 9.79774 3.1621 9.8051 3.13665C9.8125 3.10985 9.82188 3.08514 9.83325 3.06252C9.84385 3.03853 9.85638 3.01797 9.87086 3.00085C9.88457 2.98236 9.89942 2.96661 9.91541 2.95359C9.93137 2.94192 9.94805 2.93299 9.96548 2.92677C9.98208 2.92053 9.99938 2.91837 10.0174 2.92028C10.0346 2.92082 10.0517 2.9254 10.0686 2.93404C10.084 2.94128 10.0993 2.95189 10.1144 2.96588C10.1295 2.98121 10.1429 2.99852 10.1546 3.01781C10.1671 3.03847 10.1779 3.06043 10.187 3.08369C10.1961 3.1083 10.2025 3.16593 10.2063 3.2566C10.21 3.34861 10.2139 3.40482 10.2182 3.42523C10.2217 3.4456 10.2239 3.46595 10.2249 3.48625C10.2251 3.50653 10.2241 3.52744 10.2218 3.54899C10.2194 3.57054 10.2155 3.59069 10.21 3.60944C10.2045 3.62954 10.1977 3.64825 10.1898 3.66557C10.1811 3.68287 10.1716 3.69811 10.1613 3.71131C10.1511 3.7245 10.14 3.73565 10.1283 3.74474C10.1165 3.75518 10.1039 3.76223 10.0907 3.76587C10.0782 3.77089 10.0659 3.77253 10.0536 3.77079C10.0405 3.77038 10.0279 3.76729 10.0158 3.7615C10.0028 3.7557 9.99077 3.74721 9.97963 3.73605C9.96931 3.72492 9.95945 3.71245 9.95003 3.69864C9.94066 3.68348 9.93256 3.66701 9.92573 3.64923C9.91976 3.63012 9.91677 3.62057 9.91677 3.62057Z" fill="#284A28"/>
</svg>
